# Blender 4.2.0
# www.blender.org
mtllib Sword.mtl
o Sword
v 0.000000 -0.145416 -1.000000
v 0.000000 -0.145416 1.000000
v -0.055649 -0.134347 -1.000000
v -0.055649 -0.134347 1.000000
v -0.102825 -0.102825 -1.000000
v -0.102825 -0.102825 1.000000
v -0.134347 -0.055649 -1.000000
v -0.134347 -0.055649 1.000000
v -0.145416 -0.000000 -1.000000
v -0.145416 -0.000000 1.000000
v -0.134347 0.055648 -1.000000
v -0.134347 0.055648 1.000000
v -0.102825 0.102825 -1.000000
v -0.102825 0.102825 1.000000
v -0.055649 0.134347 -1.000000
v -0.055649 0.134347 1.000000
v 0.000000 0.145416 -1.000000
v 0.000000 0.145416 1.000000
v -1.012774 -0.340104 1.153239
v -1.012774 -0.340104 0.716547
v -1.012774 0.340105 1.153239
v -1.012774 0.340105 0.716547
v 0.055649 -0.134347 -1.000000
v 0.055649 -0.134347 1.000000
v 0.102825 -0.102825 -1.000000
v 0.102825 -0.102825 1.000000
v 0.134347 -0.055649 -1.000000
v 0.134347 -0.055649 1.000000
v 0.145416 -0.000000 -1.000000
v 0.145416 -0.000000 1.000000
v 0.134347 0.055648 -1.000000
v 0.134347 0.055648 1.000000
v 0.102825 0.102825 -1.000000
v 0.102825 0.102825 1.000000
v 0.055649 0.134347 -1.000000
v 0.055649 0.134347 1.000000
v 1.012774 -0.340104 1.153239
v 1.012774 -0.340104 0.716547
v 1.012774 0.340105 1.153239
v 1.012774 0.340105 0.716547
v 0.634987 0.047315 0.879505
v 0.634987 0.047315 9.417373
v 0.634987 -0.047315 0.879505
v 0.634987 -0.047315 9.417373
v -0.634987 0.047315 0.879505
v -0.634987 0.047315 7.262886
v -0.634987 -0.047315 0.879505
v -0.634987 -0.047315 7.262886
v 0.000000 -0.000000 -1.212534
vn -0.0000 -0.9583 -0.2857
vn -0.0000 -1.0000 -0.0000
vn -0.3827 -0.9239 -0.0000
vn -0.3667 -0.8854 -0.2857
vn -0.7071 -0.7071 -0.0000
vn -0.6776 -0.6776 -0.2857
vn -0.9239 -0.3827 -0.0000
vn -0.8854 -0.3667 -0.2857
vn -1.0000 -0.0000 -0.0000
vn -0.9583 -0.0000 -0.2857
vn -0.9239 0.3827 -0.0000
vn -0.8854 0.3667 -0.2857
vn -0.7071 0.7071 -0.0000
vn -0.6776 0.6776 -0.2857
vn -0.3827 0.9239 -0.0000
vn -0.3667 0.8854 -0.2857
vn -0.0000 1.0000 -0.0000
vn -0.0000 0.9583 -0.2857
vn -0.0000 -0.0000 -1.0000
vn -0.0000 -0.0000 1.0000
vn 0.3667 -0.8854 -0.2857
vn 0.3827 -0.9239 -0.0000
vn 0.6776 -0.6776 -0.2857
vn 0.7071 -0.7071 -0.0000
vn 0.8854 -0.3667 -0.2857
vn 0.9239 -0.3827 -0.0000
vn 0.9583 -0.0000 -0.2857
vn 1.0000 -0.0000 -0.0000
vn 0.8854 0.3667 -0.2857
vn 0.9239 0.3827 -0.0000
vn 0.6776 0.6776 -0.2857
vn 0.7071 0.7071 -0.0000
vn 0.3667 0.8854 -0.2857
vn 0.3827 0.9239 -0.0000
vn -0.8615 -0.0000 0.5078
vt 1.000000 0.000000
vt 1.000000 1.000000
vt 0.937500 1.000000
vt 0.937500 0.000000
vt 0.875000 1.000000
vt 0.875000 0.000000
vt 0.812500 1.000000
vt 0.812500 0.000000
vt 0.750000 1.000000
vt 0.750000 0.000000
vt 0.687500 1.000000
vt 0.687500 0.000000
vt 0.625000 1.000000
vt 0.625000 0.000000
vt 0.562500 1.000000
vt 0.562500 0.000000
vt 0.500000 1.000000
vt 0.500000 0.000000
vt 0.375000 0.500000
vt 0.625000 0.500000
vt 0.625000 0.250000
vt 0.375000 0.750000
vt 0.625000 0.750000
vt 0.375000 1.000000
vt 0.375000 0.000000
vt 0.375000 0.250000
vt 0.125000 0.500000
vt 0.125000 0.750000
vt 0.875000 0.500000
vt 0.875000 0.750000
s 1
f 1/1/1 2/2/2 4/3/3 3/4/4
f 3/4/4 4/3/3 6/5/5 5/6/6
f 5/6/6 6/5/5 8/7/7 7/8/8
f 7/8/8 8/7/7 10/9/9 9/10/10
f 9/10/10 10/9/9 12/11/11 11/12/12
f 11/12/12 12/11/11 14/13/13 13/14/14
f 13/14/14 14/13/13 16/15/15 15/16/16
f 15/16/16 16/15/15 18/17/17 17/18/18
f 40/19/17 22/19/17 21/20/17 39/20/17
f 22/20/19 40/20/19 38/21/19 20/21/19
f 20/22/9 19/23/9 21/13/9 22/24/9
f 37/25/20 39/26/20 21/26/20 19/25/20
f 1/1/1 23/4/21 24/3/22 2/2/2
f 23/4/21 25/6/23 26/5/24 24/3/22
f 25/6/23 27/8/25 28/7/26 26/5/24
f 27/8/25 29/10/27 30/9/28 28/7/26
f 29/10/27 31/12/29 32/11/30 30/9/28
f 31/12/29 33/14/31 34/13/32 32/11/30
f 33/14/31 35/16/33 36/15/34 34/13/32
f 35/16/33 17/18/18 18/17/17 36/15/34
f 38/22/28 40/24/28 39/13/28 37/23/28
f 41/25/28 42/14/28 44/21/28 43/26/28
f 43/26/2 44/21/2 48/20/2 47/19/2
f 47/19/9 48/20/9 46/23/9 45/22/9
f 45/22/17 46/23/17 42/13/17 41/24/17
f 43/27/19 47/19/19 45/22/19 41/28/19
f 48/20/35 44/29/35 42/30/35 46/23/35
f 20/28/2 38/28/2 37/22/2 19/22/2
f 25/6/23 23/4/21 49/6/19
f 35/16/33 33/14/31 49/16/19
f 7/8/8 9/10/10 49/8/19
f 3/4/4 5/6/6 49/4/19
f 31/12/29 29/10/27 49/12/19
f 13/14/14 15/16/16 49/14/19
f 27/8/25 25/6/23 49/8/19
f 17/18/18 35/16/33 49/18/19
f 9/10/10 11/12/12 49/10/19
f 23/4/21 1/1/1 49/4/19
f 33/14/31 31/12/29 49/14/19
f 5/6/6 7/8/8 49/6/19
f 15/16/16 17/18/18 49/16/19
f 1/1/1 3/4/4 49/1/19
f 29/10/27 27/8/25 49/10/19
f 11/12/12 13/14/14 49/12/19
